<svg width="194" height="194" viewBox="0 0 194 194" fill="none" xmlns="http://www.w3.org/2000/svg">
<g clip-path="url(#clip0_36_273)">
<path d="M191.228 0.97C190.222 0.321312 189.076 0 187.936 0C186.766 0 185.59 0.333438 184.571 1.0185L2.69646 122.268C0.823149 123.511 -0.207476 125.7 0.035024 127.943C0.265399 130.18 1.7204 132.114 3.81196 132.938L51.245 151.92L73.5489 190.951C74.6159 192.824 76.5983 193.982 78.7445 194.006C78.7687 194.006 78.7869 194.006 78.8111 194.006C80.9391 194.006 82.9155 192.878 84.0067 191.06L96.5985 170.065L155.374 193.57C156.096 193.861 156.854 194 157.624 194C158.654 194 159.673 193.739 160.594 193.218C162.195 192.321 163.292 190.744 163.601 188.932L193.914 7.05675C194.308 4.67419 193.253 2.28556 191.228 0.97ZM19.0106 125.961L159.509 32.2889L57.356 141.638C56.8164 141.317 56.3375 140.893 55.7433 140.656L19.0106 125.961ZM61.7695 145.9C61.7573 145.876 61.7391 145.864 61.727 145.839L176.569 22.9223L78.6656 175.467L61.7695 145.9ZM152.877 179.505L101.097 158.795C99.8662 158.31 98.587 158.146 97.32 158.074L177.054 34.4714L152.877 179.505Z" fill="#333333"/>
</g>
<defs>
<clipPath id="clip0_36_273">
<rect width="194" height="194" fill="white"/>
</clipPath>
</defs>
</svg>
