<svg width="20" height="20" viewBox="0 0 20 20" fill="none" xmlns="http://www.w3.org/2000/svg">
<g clip-path="url(#clip0_36_229)">
<path d="M16.0938 6.24998C15.7685 6.24998 15.457 6.30896 15.1688 6.41678C14.6523 5.92967 14.0195 5.62498 13.2812 5.62498C12.8266 5.62498 12.4047 5.75088 12.0301 5.95381L12.4645 3.26045C12.4888 3.10912 12.5006 2.95869 12.5006 2.81006C12.5006 1.40068 11.3713 -0.000488281 9.68454 -0.000488281C8.32986 -0.000488281 7.13337 0.982324 6.90993 2.36436L6.77344 3.2117L6.59766 2.84256C6.11328 1.8367 5.11055 1.24959 4.06289 1.24959C2.46914 1.24959 1.25 2.54959 1.25 4.06482C1.25 4.4742 1.33969 4.88943 1.52906 5.28279L3.47852 9.33201C2.525 9.78123 1.875 10.7695 1.875 11.8398V14.9648C1.875 15.8265 2.28125 16.657 2.96211 17.1859L4.75703 18.582C5.90352 19.4738 7.33437 19.9652 8.78828 19.9652L11.8668 19.9666C15.6602 20 18.75 16.8789 18.75 13.1172V8.91795C18.75 7.40623 17.4961 6.24998 16.0938 6.24998ZM12.5 8.29295C12.5 7.85545 12.8164 7.49998 13.2812 7.49998C13.7117 7.49998 14.0625 7.85459 14.0625 8.291V10.459C14.0625 10.8945 13.7109 11.25 13.2812 11.25C12.8164 11.25 12.5 10.8945 12.5 10.4609V8.29295ZM9.68359 1.8742C10.1543 1.8742 10.6262 2.24572 10.6262 2.81092C10.6262 2.8608 10.6222 2.91131 10.6139 2.96213L9.70312 8.61326C9.40234 8.49998 9.07812 8.40232 8.74609 8.40232C8.57129 8.40232 8.39582 8.41873 8.22344 8.45131L7.81133 8.51486L8.76133 2.62814C8.83594 2.20389 9.23437 1.8742 9.68359 1.8742ZM3.08984 4.06248C3.08984 3.54412 3.51133 3.12342 4.02813 3.12342C4.37723 3.12342 4.71172 3.31963 4.87227 3.65506L7.26641 8.62771L5.36328 8.92576L3.21797 4.46873C3.15469 4.33982 3.08984 4.1992 3.08984 4.06248ZM11.8672 18.125L8.78867 18.1236C7.75117 18.1236 6.7293 17.7727 5.91016 17.1353L4.11445 15.7388C3.88555 15.5625 3.75 15.2851 3.75 14.9648V11.8398C3.75 11.4012 4.06129 11.0152 4.43711 10.9328L8.55039 10.2988C8.61719 10.3203 8.68359 10.2773 8.74609 10.2773C9.21133 10.2773 9.68711 10.6492 9.68711 11.2172C9.68711 11.6484 9.39363 12.0355 9.01641 12.1191L6.75 12.4609C6.28008 12.5247 5.93828 12.9265 5.93828 13.3887C5.93828 14.1781 6.67344 14.3293 6.86406 14.3293C6.96738 14.3293 9.38789 13.9926 9.42422 13.9845C10.3441 13.7803 11.0457 13.1162 11.3668 12.2798C11.8477 12.7929 12.5234 13.125 13.2812 13.125C13.6065 13.125 13.9184 13.066 14.2066 12.9582C14.6875 13.4453 15.3555 13.75 16.0938 13.75C16.1015 13.75 16.4875 13.7326 16.8223 13.6359C16.5586 16.1523 14.4492 18.125 11.8672 18.125ZM16.875 11.0859C16.875 11.5195 16.5234 11.875 16.0938 11.875C15.6633 11.875 15.3125 11.5204 15.3125 11.084V8.916C15.3125 8.48045 15.6289 8.12498 16.0938 8.12498C16.5242 8.12498 16.875 8.47959 16.875 8.916V11.0859Z" fill="#363636"/>
</g>
<defs>
<clipPath id="clip0_36_229">
<rect width="20" height="20" fill="white"/>
</clipPath>
</defs>
</svg>
